<?xml version="1.0" encoding="utf-8"?>
<svg viewBox="0 0 166.4 46.4" xmlns="http://www.w3.org/2000/svg">
<rect fill="#222222" width="100%" height="100%"/>
<text fill="#FFFFFF" font-size="6" font-family="Arial" font-weight="bold" x="4" y="10">Lynk 2025</text>
<text fill="#FC4C02" font-size="3.5" font-family="Arial" x="162.4" y="11" text-anchor="end">🚴 171 km</text>
<text fill="#FFFFFF" font-size="2.2" font-family="Arial" x="4" y="20">Jan</text>
<text fill="#FFFFFF" font-size="2.2" font-family="Arial" x="16" y="20">Feb</text>
<text fill="#FFFFFF" font-size="2.2" font-family="Arial" x="28" y="20">Mar</text>
<text fill="#FFFFFF" font-size="2.2" font-family="Arial" x="43" y="20">Apr</text>
<text fill="#FFFFFF" font-size="2.2" font-family="Arial" x="55" y="20">May</text>
<text fill="#FFFFFF" font-size="2.2" font-family="Arial" x="67" y="20">Jun</text>
<text fill="#FFFFFF" font-size="2.2" font-family="Arial" x="82" y="20">Jul</text>
<text fill="#FFFFFF" font-size="2.2" font-family="Arial" x="94" y="20">Aug</text>
<text fill="#FFFFFF" font-size="2.2" font-family="Arial" x="109" y="20">Sep</text>
<text fill="#FFFFFF" font-size="2.2" font-family="Arial" x="121" y="20">Oct</text>
<text fill="#FFFFFF" font-size="2.2" font-family="Arial" x="133" y="20">Nov</text>
<text fill="#FFFFFF" font-size="2.2" font-family="Arial" x="148" y="20">Dec</text>
<rect fill="#444444" width="2.4" height="2.4" x="4" y="28" rx="0.4"><title>2025-01-01</title></rect>
<rect fill="#444444" width="2.4" height="2.4" x="4" y="31" rx="0.4"><title>2025-01-02</title></rect>
<rect fill="#444444" width="2.4" height="2.4" x="4" y="34" rx="0.4"><title>2025-01-03</title></rect>
<rect fill="#444444" width="2.4" height="2.4" x="4" y="37" rx="0.4"><title>2025-01-04</title></rect>
<rect fill="#444444" width="2.4" height="2.4" x="4" y="40" rx="0.4"><title>2025-01-05</title></rect>
<rect fill="#444444" width="2.4" height="2.4" x="7" y="22" rx="0.4"><title>2025-01-06</title></rect>
<rect fill="#444444" width="2.4" height="2.4" x="7" y="25" rx="0.4"><title>2025-01-07</title></rect>
<rect fill="#444444" width="2.4" height="2.4" x="7" y="28" rx="0.4"><title>2025-01-08</title></rect>
<rect fill="#444444" width="2.4" height="2.4" x="7" y="31" rx="0.4"><title>2025-01-09</title></rect>
<rect fill="#444444" width="2.4" height="2.4" x="7" y="34" rx="0.4"><title>2025-01-10</title></rect>
<rect fill="#444444" width="2.4" height="2.4" x="7" y="37" rx="0.4"><title>2025-01-11</title></rect>
<rect fill="#444444" width="2.4" height="2.4" x="7" y="40" rx="0.4"><title>2025-01-12</title></rect>
<rect fill="#444444" width="2.4" height="2.4" x="10" y="22" rx="0.4"><title>2025-01-13</title></rect>
<rect fill="#444444" width="2.4" height="2.4" x="10" y="25" rx="0.4"><title>2025-01-14</title></rect>
<rect fill="#444444" width="2.4" height="2.4" x="10" y="28" rx="0.4"><title>2025-01-15</title></rect>
<rect fill="#444444" width="2.4" height="2.4" x="10" y="31" rx="0.4"><title>2025-01-16</title></rect>
<rect fill="#444444" width="2.4" height="2.4" x="10" y="34" rx="0.4"><title>2025-01-17</title></rect>
<rect fill="#444444" width="2.4" height="2.4" x="10" y="37" rx="0.4"><title>2025-01-18</title></rect>
<rect fill="#444444" width="2.4" height="2.4" x="10" y="40" rx="0.4"><title>2025-01-19</title></rect>
<rect fill="#444444" width="2.4" height="2.4" x="13" y="22" rx="0.4"><title>2025-01-20</title></rect>
<rect fill="#444444" width="2.4" height="2.4" x="13" y="25" rx="0.4"><title>2025-01-21</title></rect>
<rect fill="#444444" width="2.4" height="2.4" x="13" y="28" rx="0.4"><title>2025-01-22</title></rect>
<rect fill="#444444" width="2.4" height="2.4" x="13" y="31" rx="0.4"><title>2025-01-23</title></rect>
<rect fill="#444444" width="2.4" height="2.4" x="13" y="34" rx="0.4"><title>2025-01-24</title></rect>
<rect fill="#444444" width="2.4" height="2.4" x="13" y="37" rx="0.4"><title>2025-01-25</title></rect>
<rect fill="#444444" width="2.4" height="2.4" x="13" y="40" rx="0.4"><title>2025-01-26</title></rect>
<rect fill="#444444" width="2.4" height="2.4" x="16" y="22" rx="0.4"><title>2025-01-27</title></rect>
<rect fill="#444444" width="2.4" height="2.4" x="16" y="25" rx="0.4"><title>2025-01-28</title></rect>
<rect fill="#444444" width="2.4" height="2.4" x="16" y="28" rx="0.4"><title>2025-01-29</title></rect>
<rect fill="#444444" width="2.4" height="2.4" x="16" y="31" rx="0.4"><title>2025-01-30</title></rect>
<rect fill="#444444" width="2.4" height="2.4" x="16" y="34" rx="0.4"><title>2025-01-31</title></rect>
<rect fill="#444444" width="2.4" height="2.4" x="16" y="37" rx="0.4"><title>2025-02-01</title></rect>
<rect fill="#444444" width="2.4" height="2.4" x="16" y="40" rx="0.4"><title>2025-02-02</title></rect>
<rect fill="#444444" width="2.4" height="2.4" x="19" y="22" rx="0.4"><title>2025-02-03</title></rect>
<rect fill="#444444" width="2.4" height="2.4" x="19" y="25" rx="0.4"><title>2025-02-04</title></rect>
<rect fill="#444444" width="2.4" height="2.4" x="19" y="28" rx="0.4"><title>2025-02-05</title></rect>
<rect fill="#444444" width="2.4" height="2.4" x="19" y="31" rx="0.4"><title>2025-02-06</title></rect>
<rect fill="#444444" width="2.4" height="2.4" x="19" y="34" rx="0.4"><title>2025-02-07</title></rect>
<rect fill="#444444" width="2.4" height="2.4" x="19" y="37" rx="0.4"><title>2025-02-08</title></rect>
<rect fill="#444444" width="2.4" height="2.4" x="19" y="40" rx="0.4"><title>2025-02-09</title></rect>
<rect fill="#444444" width="2.4" height="2.4" x="22" y="22" rx="0.4"><title>2025-02-10</title></rect>
<rect fill="#444444" width="2.4" height="2.4" x="22" y="25" rx="0.4"><title>2025-02-11</title></rect>
<rect fill="#444444" width="2.4" height="2.4" x="22" y="28" rx="0.4"><title>2025-02-12</title></rect>
<rect fill="#444444" width="2.4" height="2.4" x="22" y="31" rx="0.4"><title>2025-02-13</title></rect>
<rect fill="#444444" width="2.4" height="2.4" x="22" y="34" rx="0.4"><title>2025-02-14</title></rect>
<rect fill="#444444" width="2.4" height="2.4" x="22" y="37" rx="0.4"><title>2025-02-15</title></rect>
<rect fill="#444444" width="2.4" height="2.4" x="22" y="40" rx="0.4"><title>2025-02-16</title></rect>
<rect fill="#444444" width="2.4" height="2.4" x="25" y="22" rx="0.4"><title>2025-02-17</title></rect>
<rect fill="#444444" width="2.4" height="2.4" x="25" y="25" rx="0.4"><title>2025-02-18</title></rect>
<rect fill="#444444" width="2.4" height="2.4" x="25" y="28" rx="0.4"><title>2025-02-19</title></rect>
<rect fill="#444444" width="2.4" height="2.4" x="25" y="31" rx="0.4"><title>2025-02-20</title></rect>
<rect fill="#444444" width="2.4" height="2.4" x="25" y="34" rx="0.4"><title>2025-02-21</title></rect>
<rect fill="#444444" width="2.4" height="2.4" x="25" y="37" rx="0.4"><title>2025-02-22</title></rect>
<rect fill="#444444" width="2.4" height="2.4" x="25" y="40" rx="0.4"><title>2025-02-23</title></rect>
<rect fill="#444444" width="2.4" height="2.4" x="28" y="22" rx="0.4"><title>2025-02-24</title></rect>
<rect fill="#444444" width="2.4" height="2.4" x="28" y="25" rx="0.4"><title>2025-02-25</title></rect>
<rect fill="#444444" width="2.4" height="2.4" x="28" y="28" rx="0.4"><title>2025-02-26</title></rect>
<rect fill="#444444" width="2.4" height="2.4" x="28" y="31" rx="0.4"><title>2025-02-27</title></rect>
<rect fill="#444444" width="2.4" height="2.4" x="28" y="34" rx="0.4"><title>2025-02-28</title></rect>
<rect fill="#46fff7" width="2.4" height="2.4" x="28" y="37" rx="0.4"><title>2025-03-01 14.0km (ride)</title></rect>
<rect fill="#444444" width="2.4" height="2.4" x="28" y="40" rx="0.4"><title>2025-03-02</title></rect>
<rect fill="#444444" width="2.4" height="2.4" x="31" y="22" rx="0.4"><title>2025-03-03</title></rect>
<rect fill="#444444" width="2.4" height="2.4" x="31" y="25" rx="0.4"><title>2025-03-04</title></rect>
<rect fill="#444444" width="2.4" height="2.4" x="31" y="28" rx="0.4"><title>2025-03-05</title></rect>
<rect fill="#444444" width="2.4" height="2.4" x="31" y="31" rx="0.4"><title>2025-03-06</title></rect>
<rect fill="#444444" width="2.4" height="2.4" x="31" y="34" rx="0.4"><title>2025-03-07</title></rect>
<rect fill="#444444" width="2.4" height="2.4" x="31" y="37" rx="0.4"><title>2025-03-08</title></rect>
<rect fill="#444444" width="2.4" height="2.4" x="31" y="40" rx="0.4"><title>2025-03-09</title></rect>
<rect fill="#444444" width="2.4" height="2.4" x="34" y="22" rx="0.4"><title>2025-03-10</title></rect>
<rect fill="#444444" width="2.4" height="2.4" x="34" y="25" rx="0.4"><title>2025-03-11</title></rect>
<rect fill="#444444" width="2.4" height="2.4" x="34" y="28" rx="0.4"><title>2025-03-12</title></rect>
<rect fill="#444444" width="2.4" height="2.4" x="34" y="31" rx="0.4"><title>2025-03-13</title></rect>
<rect fill="#444444" width="2.4" height="2.4" x="34" y="34" rx="0.4"><title>2025-03-14</title></rect>
<rect fill="#444444" width="2.4" height="2.4" x="34" y="37" rx="0.4"><title>2025-03-15</title></rect>
<rect fill="#444444" width="2.4" height="2.4" x="34" y="40" rx="0.4"><title>2025-03-16</title></rect>
<rect fill="#444444" width="2.4" height="2.4" x="37" y="22" rx="0.4"><title>2025-03-17</title></rect>
<rect fill="#444444" width="2.4" height="2.4" x="37" y="25" rx="0.4"><title>2025-03-18</title></rect>
<rect fill="#444444" width="2.4" height="2.4" x="37" y="28" rx="0.4"><title>2025-03-19</title></rect>
<rect fill="#444444" width="2.4" height="2.4" x="37" y="31" rx="0.4"><title>2025-03-20</title></rect>
<rect fill="#444444" width="2.4" height="2.4" x="37" y="34" rx="0.4"><title>2025-03-21</title></rect>
<rect fill="#444444" width="2.4" height="2.4" x="37" y="37" rx="0.4"><title>2025-03-22</title></rect>
<rect fill="#444444" width="2.4" height="2.4" x="37" y="40" rx="0.4"><title>2025-03-23</title></rect>
<rect fill="#444444" width="2.4" height="2.4" x="40" y="22" rx="0.4"><title>2025-03-24</title></rect>
<rect fill="#444444" width="2.4" height="2.4" x="40" y="25" rx="0.4"><title>2025-03-25</title></rect>
<rect fill="#444444" width="2.4" height="2.4" x="40" y="28" rx="0.4"><title>2025-03-26</title></rect>
<rect fill="#444444" width="2.4" height="2.4" x="40" y="31" rx="0.4"><title>2025-03-27</title></rect>
<rect fill="#444444" width="2.4" height="2.4" x="40" y="34" rx="0.4"><title>2025-03-28</title></rect>
<rect fill="#444444" width="2.4" height="2.4" x="40" y="37" rx="0.4"><title>2025-03-29</title></rect>
<rect fill="#444444" width="2.4" height="2.4" x="40" y="40" rx="0.4"><title>2025-03-30</title></rect>
<rect fill="#444444" width="2.4" height="2.4" x="43" y="22" rx="0.4"><title>2025-03-31</title></rect>
<rect fill="#444444" width="2.4" height="2.4" x="43" y="25" rx="0.4"><title>2025-04-01</title></rect>
<rect fill="#444444" width="2.4" height="2.4" x="43" y="28" rx="0.4"><title>2025-04-02</title></rect>
<rect fill="#444444" width="2.4" height="2.4" x="43" y="31" rx="0.4"><title>2025-04-03</title></rect>
<rect fill="#444444" width="2.4" height="2.4" x="43" y="34" rx="0.4"><title>2025-04-04</title></rect>
<rect fill="#444444" width="2.4" height="2.4" x="43" y="37" rx="0.4"><title>2025-04-05</title></rect>
<rect fill="#444444" width="2.4" height="2.4" x="43" y="40" rx="0.4"><title>2025-04-06</title></rect>
<rect fill="#444444" width="2.4" height="2.4" x="46" y="22" rx="0.4"><title>2025-04-07</title></rect>
<rect fill="#444444" width="2.4" height="2.4" x="46" y="25" rx="0.4"><title>2025-04-08</title></rect>
<rect fill="#444444" width="2.4" height="2.4" x="46" y="28" rx="0.4"><title>2025-04-09</title></rect>
<rect fill="#444444" width="2.4" height="2.4" x="46" y="31" rx="0.4"><title>2025-04-10</title></rect>
<rect fill="#444444" width="2.4" height="2.4" x="46" y="34" rx="0.4"><title>2025-04-11</title></rect>
<rect fill="#444444" width="2.4" height="2.4" x="46" y="37" rx="0.4"><title>2025-04-12</title></rect>
<rect fill="#444444" width="2.4" height="2.4" x="46" y="40" rx="0.4"><title>2025-04-13</title></rect>
<rect fill="#444444" width="2.4" height="2.4" x="49" y="22" rx="0.4"><title>2025-04-14</title></rect>
<rect fill="#444444" width="2.4" height="2.4" x="49" y="25" rx="0.4"><title>2025-04-15</title></rect>
<rect fill="#444444" width="2.4" height="2.4" x="49" y="28" rx="0.4"><title>2025-04-16</title></rect>
<rect fill="#444444" width="2.4" height="2.4" x="49" y="31" rx="0.4"><title>2025-04-17</title></rect>
<rect fill="#444444" width="2.4" height="2.4" x="49" y="34" rx="0.4"><title>2025-04-18</title></rect>
<rect fill="#444444" width="2.4" height="2.4" x="49" y="37" rx="0.4"><title>2025-04-19</title></rect>
<rect fill="#444444" width="2.4" height="2.4" x="49" y="40" rx="0.4"><title>2025-04-20</title></rect>
<rect fill="#444444" width="2.4" height="2.4" x="52" y="22" rx="0.4"><title>2025-04-21</title></rect>
<rect fill="#444444" width="2.4" height="2.4" x="52" y="25" rx="0.4"><title>2025-04-22</title></rect>
<rect fill="#444444" width="2.4" height="2.4" x="52" y="28" rx="0.4"><title>2025-04-23</title></rect>
<rect fill="#444444" width="2.4" height="2.4" x="52" y="31" rx="0.4"><title>2025-04-24</title></rect>
<rect fill="#444444" width="2.4" height="2.4" x="52" y="34" rx="0.4"><title>2025-04-25</title></rect>
<rect fill="#444444" width="2.4" height="2.4" x="52" y="37" rx="0.4"><title>2025-04-26</title></rect>
<rect fill="#444444" width="2.4" height="2.4" x="52" y="40" rx="0.4"><title>2025-04-27</title></rect>
<rect fill="#444444" width="2.4" height="2.4" x="55" y="22" rx="0.4"><title>2025-04-28</title></rect>
<rect fill="#444444" width="2.4" height="2.4" x="55" y="25" rx="0.4"><title>2025-04-29</title></rect>
<rect fill="#444444" width="2.4" height="2.4" x="55" y="28" rx="0.4"><title>2025-04-30</title></rect>
<rect fill="#444444" width="2.4" height="2.4" x="55" y="31" rx="0.4"><title>2025-05-01</title></rect>
<rect fill="#444444" width="2.4" height="2.4" x="55" y="34" rx="0.4"><title>2025-05-02</title></rect>
<rect fill="#444444" width="2.4" height="2.4" x="55" y="37" rx="0.4"><title>2025-05-03</title></rect>
<rect fill="#444444" width="2.4" height="2.4" x="55" y="40" rx="0.4"><title>2025-05-04</title></rect>
<rect fill="#444444" width="2.4" height="2.4" x="58" y="22" rx="0.4"><title>2025-05-05</title></rect>
<rect fill="#444444" width="2.4" height="2.4" x="58" y="25" rx="0.4"><title>2025-05-06</title></rect>
<rect fill="#444444" width="2.4" height="2.4" x="58" y="28" rx="0.4"><title>2025-05-07</title></rect>
<rect fill="#444444" width="2.4" height="2.4" x="58" y="31" rx="0.4"><title>2025-05-08</title></rect>
<rect fill="#444444" width="2.4" height="2.4" x="58" y="34" rx="0.4"><title>2025-05-09</title></rect>
<rect fill="#444444" width="2.4" height="2.4" x="58" y="37" rx="0.4"><title>2025-05-10</title></rect>
<rect fill="#444444" width="2.4" height="2.4" x="58" y="40" rx="0.4"><title>2025-05-11</title></rect>
<rect fill="#444444" width="2.4" height="2.4" x="61" y="22" rx="0.4"><title>2025-05-12</title></rect>
<rect fill="#444444" width="2.4" height="2.4" x="61" y="25" rx="0.4"><title>2025-05-13</title></rect>
<rect fill="#444444" width="2.4" height="2.4" x="61" y="28" rx="0.4"><title>2025-05-14</title></rect>
<rect fill="#444444" width="2.4" height="2.4" x="61" y="31" rx="0.4"><title>2025-05-15</title></rect>
<rect fill="#444444" width="2.4" height="2.4" x="61" y="34" rx="0.4"><title>2025-05-16</title></rect>
<rect fill="#444444" width="2.4" height="2.4" x="61" y="37" rx="0.4"><title>2025-05-17</title></rect>
<rect fill="#444444" width="2.4" height="2.4" x="61" y="40" rx="0.4"><title>2025-05-18</title></rect>
<rect fill="#444444" width="2.4" height="2.4" x="64" y="22" rx="0.4"><title>2025-05-19</title></rect>
<rect fill="#444444" width="2.4" height="2.4" x="64" y="25" rx="0.4"><title>2025-05-20</title></rect>
<rect fill="#444444" width="2.4" height="2.4" x="64" y="28" rx="0.4"><title>2025-05-21</title></rect>
<rect fill="#444444" width="2.4" height="2.4" x="64" y="31" rx="0.4"><title>2025-05-22</title></rect>
<rect fill="#444444" width="2.4" height="2.4" x="64" y="34" rx="0.4"><title>2025-05-23</title></rect>
<rect fill="#444444" width="2.4" height="2.4" x="64" y="37" rx="0.4"><title>2025-05-24</title></rect>
<rect fill="#444444" width="2.4" height="2.4" x="64" y="40" rx="0.4"><title>2025-05-25</title></rect>
<rect fill="#444444" width="2.4" height="2.4" x="67" y="22" rx="0.4"><title>2025-05-26</title></rect>
<rect fill="#444444" width="2.4" height="2.4" x="67" y="25" rx="0.4"><title>2025-05-27</title></rect>
<rect fill="#444444" width="2.4" height="2.4" x="67" y="28" rx="0.4"><title>2025-05-28</title></rect>
<rect fill="#444444" width="2.4" height="2.4" x="67" y="31" rx="0.4"><title>2025-05-29</title></rect>
<rect fill="#444444" width="2.4" height="2.4" x="67" y="34" rx="0.4"><title>2025-05-30</title></rect>
<rect fill="#444444" width="2.4" height="2.4" x="67" y="37" rx="0.4"><title>2025-05-31</title></rect>
<rect fill="#444444" width="2.4" height="2.4" x="67" y="40" rx="0.4"><title>2025-06-01</title></rect>
<rect fill="#444444" width="2.4" height="2.4" x="70" y="22" rx="0.4"><title>2025-06-02</title></rect>
<rect fill="#444444" width="2.4" height="2.4" x="70" y="25" rx="0.4"><title>2025-06-03</title></rect>
<rect fill="#444444" width="2.4" height="2.4" x="70" y="28" rx="0.4"><title>2025-06-04</title></rect>
<rect fill="#444444" width="2.4" height="2.4" x="70" y="31" rx="0.4"><title>2025-06-05</title></rect>
<rect fill="#444444" width="2.4" height="2.4" x="70" y="34" rx="0.4"><title>2025-06-06</title></rect>
<rect fill="#444444" width="2.4" height="2.4" x="70" y="37" rx="0.4"><title>2025-06-07</title></rect>
<rect fill="#444444" width="2.4" height="2.4" x="70" y="40" rx="0.4"><title>2025-06-08</title></rect>
<rect fill="#444444" width="2.4" height="2.4" x="73" y="22" rx="0.4"><title>2025-06-09</title></rect>
<rect fill="#444444" width="2.4" height="2.4" x="73" y="25" rx="0.4"><title>2025-06-10</title></rect>
<rect fill="#444444" width="2.4" height="2.4" x="73" y="28" rx="0.4"><title>2025-06-11</title></rect>
<rect fill="#444444" width="2.4" height="2.4" x="73" y="31" rx="0.4"><title>2025-06-12</title></rect>
<rect fill="#444444" width="2.4" height="2.4" x="73" y="34" rx="0.4"><title>2025-06-13</title></rect>
<rect fill="#444444" width="2.4" height="2.4" x="73" y="37" rx="0.4"><title>2025-06-14</title></rect>
<rect fill="#444444" width="2.4" height="2.4" x="73" y="40" rx="0.4"><title>2025-06-15</title></rect>
<rect fill="#444444" width="2.4" height="2.4" x="76" y="22" rx="0.4"><title>2025-06-16</title></rect>
<rect fill="#444444" width="2.4" height="2.4" x="76" y="25" rx="0.4"><title>2025-06-17</title></rect>
<rect fill="#444444" width="2.4" height="2.4" x="76" y="28" rx="0.4"><title>2025-06-18</title></rect>
<rect fill="#444444" width="2.4" height="2.4" x="76" y="31" rx="0.4"><title>2025-06-19</title></rect>
<rect fill="#444444" width="2.4" height="2.4" x="76" y="34" rx="0.4"><title>2025-06-20</title></rect>
<rect fill="#444444" width="2.4" height="2.4" x="76" y="37" rx="0.4"><title>2025-06-21</title></rect>
<rect fill="#444444" width="2.4" height="2.4" x="76" y="40" rx="0.4"><title>2025-06-22</title></rect>
<rect fill="#444444" width="2.4" height="2.4" x="79" y="22" rx="0.4"><title>2025-06-23</title></rect>
<rect fill="#444444" width="2.4" height="2.4" x="79" y="25" rx="0.4"><title>2025-06-24</title></rect>
<rect fill="#444444" width="2.4" height="2.4" x="79" y="28" rx="0.4"><title>2025-06-25</title></rect>
<rect fill="#444444" width="2.4" height="2.4" x="79" y="31" rx="0.4"><title>2025-06-26</title></rect>
<rect fill="#444444" width="2.4" height="2.4" x="79" y="34" rx="0.4"><title>2025-06-27</title></rect>
<rect fill="#444444" width="2.4" height="2.4" x="79" y="37" rx="0.4"><title>2025-06-28</title></rect>
<rect fill="#444444" width="2.4" height="2.4" x="79" y="40" rx="0.4"><title>2025-06-29</title></rect>
<rect fill="#444444" width="2.4" height="2.4" x="82" y="22" rx="0.4"><title>2025-06-30</title></rect>
<rect fill="#444444" width="2.4" height="2.4" x="82" y="25" rx="0.4"><title>2025-07-01</title></rect>
<rect fill="#444444" width="2.4" height="2.4" x="82" y="28" rx="0.4"><title>2025-07-02</title></rect>
<rect fill="#444444" width="2.4" height="2.4" x="82" y="31" rx="0.4"><title>2025-07-03</title></rect>
<rect fill="#444444" width="2.4" height="2.4" x="82" y="34" rx="0.4"><title>2025-07-04</title></rect>
<rect fill="#444444" width="2.4" height="2.4" x="82" y="37" rx="0.4"><title>2025-07-05</title></rect>
<rect fill="#444444" width="2.4" height="2.4" x="82" y="40" rx="0.4"><title>2025-07-06</title></rect>
<rect fill="#444444" width="2.4" height="2.4" x="85" y="22" rx="0.4"><title>2025-07-07</title></rect>
<rect fill="#444444" width="2.4" height="2.4" x="85" y="25" rx="0.4"><title>2025-07-08</title></rect>
<rect fill="#444444" width="2.4" height="2.4" x="85" y="28" rx="0.4"><title>2025-07-09</title></rect>
<rect fill="#444444" width="2.4" height="2.4" x="85" y="31" rx="0.4"><title>2025-07-10</title></rect>
<rect fill="#444444" width="2.4" height="2.4" x="85" y="34" rx="0.4"><title>2025-07-11</title></rect>
<rect fill="#444444" width="2.4" height="2.4" x="85" y="37" rx="0.4"><title>2025-07-12</title></rect>
<rect fill="#444444" width="2.4" height="2.4" x="85" y="40" rx="0.4"><title>2025-07-13</title></rect>
<rect fill="#444444" width="2.4" height="2.4" x="88" y="22" rx="0.4"><title>2025-07-14</title></rect>
<rect fill="#444444" width="2.4" height="2.4" x="88" y="25" rx="0.4"><title>2025-07-15</title></rect>
<rect fill="#444444" width="2.4" height="2.4" x="88" y="28" rx="0.4"><title>2025-07-16</title></rect>
<rect fill="#444444" width="2.4" height="2.4" x="88" y="31" rx="0.4"><title>2025-07-17</title></rect>
<rect fill="#444444" width="2.4" height="2.4" x="88" y="34" rx="0.4"><title>2025-07-18</title></rect>
<rect fill="#444444" width="2.4" height="2.4" x="88" y="37" rx="0.4"><title>2025-07-19</title></rect>
<rect fill="#444444" width="2.4" height="2.4" x="88" y="40" rx="0.4"><title>2025-07-20</title></rect>
<rect fill="#444444" width="2.4" height="2.4" x="91" y="22" rx="0.4"><title>2025-07-21</title></rect>
<rect fill="#444444" width="2.4" height="2.4" x="91" y="25" rx="0.4"><title>2025-07-22</title></rect>
<rect fill="#444444" width="2.4" height="2.4" x="91" y="28" rx="0.4"><title>2025-07-23</title></rect>
<rect fill="#444444" width="2.4" height="2.4" x="91" y="31" rx="0.4"><title>2025-07-24</title></rect>
<rect fill="#444444" width="2.4" height="2.4" x="91" y="34" rx="0.4"><title>2025-07-25</title></rect>
<rect fill="#444444" width="2.4" height="2.4" x="91" y="37" rx="0.4"><title>2025-07-26</title></rect>
<rect fill="#444444" width="2.4" height="2.4" x="91" y="40" rx="0.4"><title>2025-07-27</title></rect>
<rect fill="#444444" width="2.4" height="2.4" x="94" y="22" rx="0.4"><title>2025-07-28</title></rect>
<rect fill="#444444" width="2.4" height="2.4" x="94" y="25" rx="0.4"><title>2025-07-29</title></rect>
<rect fill="#444444" width="2.4" height="2.4" x="94" y="28" rx="0.4"><title>2025-07-30</title></rect>
<rect fill="#444444" width="2.4" height="2.4" x="94" y="31" rx="0.4"><title>2025-07-31</title></rect>
<rect fill="#444444" width="2.4" height="2.4" x="94" y="34" rx="0.4"><title>2025-08-01</title></rect>
<rect fill="#444444" width="2.4" height="2.4" x="94" y="37" rx="0.4"><title>2025-08-02</title></rect>
<rect fill="#444444" width="2.4" height="2.4" x="94" y="40" rx="0.4"><title>2025-08-03</title></rect>
<rect fill="#444444" width="2.4" height="2.4" x="97" y="22" rx="0.4"><title>2025-08-04</title></rect>
<rect fill="#444444" width="2.4" height="2.4" x="97" y="25" rx="0.4"><title>2025-08-05</title></rect>
<rect fill="#444444" width="2.4" height="2.4" x="97" y="28" rx="0.4"><title>2025-08-06</title></rect>
<rect fill="#444444" width="2.4" height="2.4" x="97" y="31" rx="0.4"><title>2025-08-07</title></rect>
<rect fill="#444444" width="2.4" height="2.4" x="97" y="34" rx="0.4"><title>2025-08-08</title></rect>
<rect fill="#444444" width="2.4" height="2.4" x="97" y="37" rx="0.4"><title>2025-08-09</title></rect>
<rect fill="#444444" width="2.4" height="2.4" x="97" y="40" rx="0.4"><title>2025-08-10</title></rect>
<rect fill="#444444" width="2.4" height="2.4" x="100" y="22" rx="0.4"><title>2025-08-11</title></rect>
<rect fill="#444444" width="2.4" height="2.4" x="100" y="25" rx="0.4"><title>2025-08-12</title></rect>
<rect fill="#444444" width="2.4" height="2.4" x="100" y="28" rx="0.4"><title>2025-08-13</title></rect>
<rect fill="#444444" width="2.4" height="2.4" x="100" y="31" rx="0.4"><title>2025-08-14</title></rect>
<rect fill="#444444" width="2.4" height="2.4" x="100" y="34" rx="0.4"><title>2025-08-15</title></rect>
<rect fill="#46fff7" width="2.4" height="2.4" x="100" y="37" rx="0.4"><title>2025-08-16 8.8km (ride)</title></rect>
<rect fill="#49f0ff" width="2.4" height="2.4" x="100" y="40" rx="0.4"><title>2025-08-17 21.4km (ride)</title></rect>
<rect fill="#444444" width="2.4" height="2.4" x="103" y="22" rx="0.4"><title>2025-08-18</title></rect>
<rect fill="#444444" width="2.4" height="2.4" x="103" y="25" rx="0.4"><title>2025-08-19</title></rect>
<rect fill="#444444" width="2.4" height="2.4" x="103" y="28" rx="0.4"><title>2025-08-20</title></rect>
<rect fill="#444444" width="2.4" height="2.4" x="103" y="31" rx="0.4"><title>2025-08-21</title></rect>
<rect fill="#444444" width="2.4" height="2.4" x="103" y="34" rx="0.4"><title>2025-08-22</title></rect>
<rect fill="#444444" width="2.4" height="2.4" x="103" y="37" rx="0.4"><title>2025-08-23</title></rect>
<rect fill="#444444" width="2.4" height="2.4" x="103" y="40" rx="0.4"><title>2025-08-24</title></rect>
<rect fill="#444444" width="2.4" height="2.4" x="106" y="22" rx="0.4"><title>2025-08-25</title></rect>
<rect fill="#444444" width="2.4" height="2.4" x="106" y="25" rx="0.4"><title>2025-08-26</title></rect>
<rect fill="#444444" width="2.4" height="2.4" x="106" y="28" rx="0.4"><title>2025-08-27</title></rect>
<rect fill="#444444" width="2.4" height="2.4" x="106" y="31" rx="0.4"><title>2025-08-28</title></rect>
<rect fill="#444444" width="2.4" height="2.4" x="106" y="34" rx="0.4"><title>2025-08-29</title></rect>
<rect fill="#444444" width="2.4" height="2.4" x="106" y="37" rx="0.4"><title>2025-08-30</title></rect>
<rect fill="#444444" width="2.4" height="2.4" x="106" y="40" rx="0.4"><title>2025-08-31</title></rect>
<rect fill="#444444" width="2.4" height="2.4" x="109" y="22" rx="0.4"><title>2025-09-01</title></rect>
<rect fill="#444444" width="2.4" height="2.4" x="109" y="25" rx="0.4"><title>2025-09-02</title></rect>
<rect fill="#444444" width="2.4" height="2.4" x="109" y="28" rx="0.4"><title>2025-09-03</title></rect>
<rect fill="#444444" width="2.4" height="2.4" x="109" y="31" rx="0.4"><title>2025-09-04</title></rect>
<rect fill="#444444" width="2.4" height="2.4" x="109" y="34" rx="0.4"><title>2025-09-05</title></rect>
<rect fill="#444444" width="2.4" height="2.4" x="109" y="37" rx="0.4"><title>2025-09-06</title></rect>
<rect fill="#444444" width="2.4" height="2.4" x="109" y="40" rx="0.4"><title>2025-09-07</title></rect>
<rect fill="#444444" width="2.4" height="2.4" x="112" y="22" rx="0.4"><title>2025-09-08</title></rect>
<rect fill="#444444" width="2.4" height="2.4" x="112" y="25" rx="0.4"><title>2025-09-09</title></rect>
<rect fill="#444444" width="2.4" height="2.4" x="112" y="28" rx="0.4"><title>2025-09-10</title></rect>
<rect fill="#444444" width="2.4" height="2.4" x="112" y="31" rx="0.4"><title>2025-09-11</title></rect>
<rect fill="#444444" width="2.4" height="2.4" x="112" y="34" rx="0.4"><title>2025-09-12</title></rect>
<rect fill="#444444" width="2.4" height="2.4" x="112" y="37" rx="0.4"><title>2025-09-13</title></rect>
<rect fill="#444444" width="2.4" height="2.4" x="112" y="40" rx="0.4"><title>2025-09-14</title></rect>
<rect fill="#444444" width="2.4" height="2.4" x="115" y="22" rx="0.4"><title>2025-09-15</title></rect>
<rect fill="#444444" width="2.4" height="2.4" x="115" y="25" rx="0.4"><title>2025-09-16</title></rect>
<rect fill="#444444" width="2.4" height="2.4" x="115" y="28" rx="0.4"><title>2025-09-17</title></rect>
<rect fill="#444444" width="2.4" height="2.4" x="115" y="31" rx="0.4"><title>2025-09-18</title></rect>
<rect fill="#444444" width="2.4" height="2.4" x="115" y="34" rx="0.4"><title>2025-09-19</title></rect>
<rect fill="#444444" width="2.4" height="2.4" x="115" y="37" rx="0.4"><title>2025-09-20</title></rect>
<rect fill="#444444" width="2.4" height="2.4" x="115" y="40" rx="0.4"><title>2025-09-21</title></rect>
<rect fill="#444444" width="2.4" height="2.4" x="118" y="22" rx="0.4"><title>2025-09-22</title></rect>
<rect fill="#444444" width="2.4" height="2.4" x="118" y="25" rx="0.4"><title>2025-09-23</title></rect>
<rect fill="#444444" width="2.4" height="2.4" x="118" y="28" rx="0.4"><title>2025-09-24</title></rect>
<rect fill="#444444" width="2.4" height="2.4" x="118" y="31" rx="0.4"><title>2025-09-25</title></rect>
<rect fill="#444444" width="2.4" height="2.4" x="118" y="34" rx="0.4"><title>2025-09-26</title></rect>
<rect fill="#444444" width="2.4" height="2.4" x="118" y="37" rx="0.4"><title>2025-09-27</title></rect>
<rect fill="#444444" width="2.4" height="2.4" x="118" y="40" rx="0.4"><title>2025-09-28</title></rect>
<rect fill="#444444" width="2.4" height="2.4" x="121" y="22" rx="0.4"><title>2025-09-29</title></rect>
<rect fill="#444444" width="2.4" height="2.4" x="121" y="25" rx="0.4"><title>2025-09-30</title></rect>
<rect fill="#444444" width="2.4" height="2.4" x="121" y="28" rx="0.4"><title>2025-10-01</title></rect>
<rect fill="#444444" width="2.4" height="2.4" x="121" y="31" rx="0.4"><title>2025-10-02</title></rect>
<rect fill="#444444" width="2.4" height="2.4" x="121" y="34" rx="0.4"><title>2025-10-03</title></rect>
<rect fill="#49f0ff" width="2.4" height="2.4" x="121" y="37" rx="0.4"><title>2025-10-04 21.1km (ride)</title></rect>
<rect fill="#ffd900" width="2.4" height="2.4" x="121" y="40" rx="0.4"><title>2025-10-05 39.0km (ride)</title></rect>
<rect fill="#444444" width="2.4" height="2.4" x="124" y="22" rx="0.4"><title>2025-10-06</title></rect>
<rect fill="#444444" width="2.4" height="2.4" x="124" y="25" rx="0.4"><title>2025-10-07</title></rect>
<rect fill="#444444" width="2.4" height="2.4" x="124" y="28" rx="0.4"><title>2025-10-08</title></rect>
<rect fill="#444444" width="2.4" height="2.4" x="124" y="31" rx="0.4"><title>2025-10-09</title></rect>
<rect fill="#444444" width="2.4" height="2.4" x="124" y="34" rx="0.4"><title>2025-10-10</title></rect>
<rect fill="#444444" width="2.4" height="2.4" x="124" y="37" rx="0.4"><title>2025-10-11</title></rect>
<rect fill="#444444" width="2.4" height="2.4" x="124" y="40" rx="0.4"><title>2025-10-12</title></rect>
<rect fill="#444444" width="2.4" height="2.4" x="127" y="22" rx="0.4"><title>2025-10-13</title></rect>
<rect fill="#444444" width="2.4" height="2.4" x="127" y="25" rx="0.4"><title>2025-10-14</title></rect>
<rect fill="#444444" width="2.4" height="2.4" x="127" y="28" rx="0.4"><title>2025-10-15</title></rect>
<rect fill="#444444" width="2.4" height="2.4" x="127" y="31" rx="0.4"><title>2025-10-16</title></rect>
<rect fill="#444444" width="2.4" height="2.4" x="127" y="34" rx="0.4"><title>2025-10-17</title></rect>
<rect fill="#444444" width="2.4" height="2.4" x="127" y="37" rx="0.4"><title>2025-10-18</title></rect>
<rect fill="#444444" width="2.4" height="2.4" x="127" y="40" rx="0.4"><title>2025-10-19</title></rect>
<rect fill="#444444" width="2.4" height="2.4" x="130" y="22" rx="0.4"><title>2025-10-20</title></rect>
<rect fill="#444444" width="2.4" height="2.4" x="130" y="25" rx="0.4"><title>2025-10-21</title></rect>
<rect fill="#444444" width="2.4" height="2.4" x="130" y="28" rx="0.4"><title>2025-10-22</title></rect>
<rect fill="#444444" width="2.4" height="2.4" x="130" y="31" rx="0.4"><title>2025-10-23</title></rect>
<rect fill="#444444" width="2.4" height="2.4" x="130" y="34" rx="0.4"><title>2025-10-24</title></rect>
<rect fill="#444444" width="2.4" height="2.4" x="130" y="37" rx="0.4"><title>2025-10-25</title></rect>
<rect fill="#ffd900" width="2.4" height="2.4" x="130" y="40" rx="0.4"><title>2025-10-26 29.5km (ride)</title></rect>
<rect fill="#444444" width="2.4" height="2.4" x="133" y="22" rx="0.4"><title>2025-10-27</title></rect>
<rect fill="#444444" width="2.4" height="2.4" x="133" y="25" rx="0.4"><title>2025-10-28</title></rect>
<rect fill="#444444" width="2.4" height="2.4" x="133" y="28" rx="0.4"><title>2025-10-29</title></rect>
<rect fill="#444444" width="2.4" height="2.4" x="133" y="31" rx="0.4"><title>2025-10-30</title></rect>
<rect fill="#444444" width="2.4" height="2.4" x="133" y="34" rx="0.4"><title>2025-10-31</title></rect>
<rect fill="#444444" width="2.4" height="2.4" x="133" y="37" rx="0.4"><title>2025-11-01</title></rect>
<rect fill="#ffd900" width="2.4" height="2.4" x="133" y="40" rx="0.4"><title>2025-11-02 36.8km (ride)</title></rect>
<rect fill="#444444" width="2.4" height="2.4" x="136" y="22" rx="0.4"><title>2025-11-03</title></rect>
<rect fill="#444444" width="2.4" height="2.4" x="136" y="25" rx="0.4"><title>2025-11-04</title></rect>
<rect fill="#444444" width="2.4" height="2.4" x="136" y="28" rx="0.4"><title>2025-11-05</title></rect>
<rect fill="#444444" width="2.4" height="2.4" x="136" y="31" rx="0.4"><title>2025-11-06</title></rect>
<rect fill="#444444" width="2.4" height="2.4" x="136" y="34" rx="0.4"><title>2025-11-07</title></rect>
<rect fill="#444444" width="2.4" height="2.4" x="136" y="37" rx="0.4"><title>2025-11-08</title></rect>
<rect fill="#444444" width="2.4" height="2.4" x="136" y="40" rx="0.4"><title>2025-11-09</title></rect>
<rect fill="#444444" width="2.4" height="2.4" x="139" y="22" rx="0.4"><title>2025-11-10</title></rect>
<rect fill="#444444" width="2.4" height="2.4" x="139" y="25" rx="0.4"><title>2025-11-11</title></rect>
<rect fill="#444444" width="2.4" height="2.4" x="139" y="28" rx="0.4"><title>2025-11-12</title></rect>
<rect fill="#444444" width="2.4" height="2.4" x="139" y="31" rx="0.4"><title>2025-11-13</title></rect>
<rect fill="#444444" width="2.4" height="2.4" x="139" y="34" rx="0.4"><title>2025-11-14</title></rect>
<rect fill="#444444" width="2.4" height="2.4" x="139" y="37" rx="0.4"><title>2025-11-15</title></rect>
<rect fill="#444444" width="2.4" height="2.4" x="139" y="40" rx="0.4"><title>2025-11-16</title></rect>
<rect fill="#444444" width="2.4" height="2.4" x="142" y="22" rx="0.4"><title>2025-11-17</title></rect>
<rect fill="#444444" width="2.4" height="2.4" x="142" y="25" rx="0.4"><title>2025-11-18</title></rect>
<rect fill="#444444" width="2.4" height="2.4" x="142" y="28" rx="0.4"><title>2025-11-19</title></rect>
<rect fill="#444444" width="2.4" height="2.4" x="142" y="31" rx="0.4"><title>2025-11-20</title></rect>
<rect fill="#444444" width="2.4" height="2.4" x="142" y="34" rx="0.4"><title>2025-11-21</title></rect>
<rect fill="#444444" width="2.4" height="2.4" x="142" y="37" rx="0.4"><title>2025-11-22</title></rect>
<rect fill="#444444" width="2.4" height="2.4" x="142" y="40" rx="0.4"><title>2025-11-23</title></rect>
<rect fill="#444444" width="2.4" height="2.4" x="145" y="22" rx="0.4"><title>2025-11-24</title></rect>
<rect fill="#444444" width="2.4" height="2.4" x="145" y="25" rx="0.4"><title>2025-11-25</title></rect>
<rect fill="#444444" width="2.4" height="2.4" x="145" y="28" rx="0.4"><title>2025-11-26</title></rect>
<rect fill="#444444" width="2.4" height="2.4" x="145" y="31" rx="0.4"><title>2025-11-27</title></rect>
<rect fill="#444444" width="2.4" height="2.4" x="145" y="34" rx="0.4"><title>2025-11-28</title></rect>
<rect fill="#444444" width="2.4" height="2.4" x="145" y="37" rx="0.4"><title>2025-11-29</title></rect>
<rect fill="#444444" width="2.4" height="2.4" x="145" y="40" rx="0.4"><title>2025-11-30</title></rect>
<rect fill="#444444" width="2.4" height="2.4" x="148" y="22" rx="0.4"><title>2025-12-01</title></rect>
<rect fill="#444444" width="2.4" height="2.4" x="148" y="25" rx="0.4"><title>2025-12-02</title></rect>
<rect fill="#444444" width="2.4" height="2.4" x="148" y="28" rx="0.4"><title>2025-12-03</title></rect>
<rect fill="#444444" width="2.4" height="2.4" x="148" y="31" rx="0.4"><title>2025-12-04</title></rect>
<rect fill="#444444" width="2.4" height="2.4" x="148" y="34" rx="0.4"><title>2025-12-05</title></rect>
<rect fill="#444444" width="2.4" height="2.4" x="148" y="37" rx="0.4"><title>2025-12-06</title></rect>
<rect fill="#444444" width="2.4" height="2.4" x="148" y="40" rx="0.4"><title>2025-12-07</title></rect>
<rect fill="#444444" width="2.4" height="2.4" x="151" y="22" rx="0.4"><title>2025-12-08</title></rect>
<rect fill="#444444" width="2.4" height="2.4" x="151" y="25" rx="0.4"><title>2025-12-09</title></rect>
<rect fill="#444444" width="2.4" height="2.4" x="151" y="28" rx="0.4"><title>2025-12-10</title></rect>
<rect fill="#444444" width="2.4" height="2.4" x="151" y="31" rx="0.4"><title>2025-12-11</title></rect>
<rect fill="#444444" width="2.4" height="2.4" x="151" y="34" rx="0.4"><title>2025-12-12</title></rect>
<rect fill="#444444" width="2.4" height="2.4" x="151" y="37" rx="0.4"><title>2025-12-13</title></rect>
<rect fill="#444444" width="2.4" height="2.4" x="151" y="40" rx="0.4"><title>2025-12-14</title></rect>
<rect fill="#444444" width="2.4" height="2.4" x="154" y="22" rx="0.4"><title>2025-12-15</title></rect>
<rect fill="#444444" width="2.4" height="2.4" x="154" y="25" rx="0.4"><title>2025-12-16</title></rect>
<rect fill="#444444" width="2.4" height="2.4" x="154" y="28" rx="0.4"><title>2025-12-17</title></rect>
<rect fill="#444444" width="2.4" height="2.4" x="154" y="31" rx="0.4"><title>2025-12-18</title></rect>
<rect fill="#444444" width="2.4" height="2.4" x="154" y="34" rx="0.4"><title>2025-12-19</title></rect>
<rect fill="#444444" width="2.4" height="2.4" x="154" y="37" rx="0.4"><title>2025-12-20</title></rect>
<rect fill="#444444" width="2.4" height="2.4" x="154" y="40" rx="0.4"><title>2025-12-21</title></rect>
<rect fill="#444444" width="2.4" height="2.4" x="157" y="22" rx="0.4"><title>2025-12-22</title></rect>
<rect fill="#444444" width="2.4" height="2.4" x="157" y="25" rx="0.4"><title>2025-12-23</title></rect>
<rect fill="#444444" width="2.4" height="2.4" x="157" y="28" rx="0.4"><title>2025-12-24</title></rect>
<rect fill="#444444" width="2.4" height="2.4" x="157" y="31" rx="0.4"><title>2025-12-25</title></rect>
<rect fill="#444444" width="2.4" height="2.4" x="157" y="34" rx="0.4"><title>2025-12-26</title></rect>
<rect fill="#444444" width="2.4" height="2.4" x="157" y="37" rx="0.4"><title>2025-12-27</title></rect>
<rect fill="#444444" width="2.4" height="2.4" x="157" y="40" rx="0.4"><title>2025-12-28</title></rect>
<rect fill="#444444" width="2.4" height="2.4" x="160" y="22" rx="0.4"><title>2025-12-29</title></rect>
<rect fill="#444444" width="2.4" height="2.4" x="160" y="25" rx="0.4"><title>2025-12-30</title></rect>
<rect fill="#444444" width="2.4" height="2.4" x="160" y="28" rx="0.4"><title>2025-12-31</title></rect>
</svg>